<?xml version="1.0" encoding="utf-8"?>

<svg version="1.1" id="Icons" xmlns="http://www.w3.org/2000/svg" xmlns:xlink="http://www.w3.org/1999/xlink" x="0px" y="0px"
	 viewBox="0 0 32 32" style="enable-background:new 0 0 32 32;" xml:space="preserve">
<style type="text/css">
	.st0{fill:none;stroke:#fff;stroke-width:1;stroke-linecap:round;stroke-linejoin:round;stroke-miterlimit:10;}
</style>
<path class="st0" d="M18.5,5.1L16,3l-2.5,2.1c-3.8,3.2-6.6,7.5-8.1,12.4L4,22l12,7l12-7l-1.4-4.5C25.1,12.6,22.3,8.3,18.5,5.1z"/>
<path class="st0" d="M24,21l-0.9-2.3c-1-2.6-2.9-4.9-5.4-6.5L16,11l-1.7,1.1c-2.5,1.7-4.4,3.9-5.4,6.5L8,21"/>
<path class="st0" d="M10,16.4c0.1,0.4,0.1,0.8,0.3,1.1c-0.2,0.3-0.3,0.7-0.3,1.2c0,1.3,1.1,2.4,2.4,2.4c0.2,0,0.4,0,0.6-0.1v2h6v-2
	c0.2,0.1,0.4,0.1,0.6,0.1c1.3,0,2.4-1.1,2.4-2.4c0-0.4-0.1-0.8-0.3-1.2c0.1-0.4,0.2-0.7,0.3-1.1"/>
<line class="st0" x1="14" y1="17" x2="14" y2="18"/>
<line class="st0" x1="18" y1="17" x2="18" y2="18"/>
</svg>
