<?xml version="1.0" encoding="utf-8"?>

<svg version="1.1" id="Icons" xmlns="http://www.w3.org/2000/svg" xmlns:xlink="http://www.w3.org/1999/xlink" x="0px" y="0px"
	 viewBox="0 0 32 32" style="enable-background:new 0 0 32 32;" xml:space="preserve">
<style type="text/css">
	.st0{fill:none;stroke:#fff;stroke-width:1;stroke-linecap:round;stroke-linejoin:round;stroke-miterlimit:10;}
</style>
<path class="st0" d="M26,12v6.6c0,2.3-0.6,4.5-1.7,6.4l0,0c-1.4,2.5-4,4-6.9,4h-2.8c-2.9,0-5.5-1.5-6.9-4l0,0C6.6,23,6,20.8,6,18.5
	V12v0c0-5,4-9,9-9H17C22,3,26,7,26,12L26,12"/>
<path class="st0" d="M21.3,22c-1.4,1.2-3.3,2-5.3,2s-3.9-0.8-5.3-2"/>
<line class="st0" x1="13" y1="25" x2="13" y2="23.4"/>
<line class="st0" x1="19" y1="25" x2="19" y2="23.4"/>
<path class="st0" d="M26,15L26,15c-2.3,0-4.3-1.6-4.8-3.9L21,9.9c-0.5-2.3-3.1-3.3-5-1.9l0,0l0,0c-1.9-1.4-4.5-0.4-5,1.9l-0.2,1.2
	C10.3,13.4,8.3,15,6,15h0"/>
<path class="st0" d="M26,21L26,21c1.7,0,3-1.3,3-3v-2.9c0-1.1-1.4-1.7-2.2-0.9L26,15"/>
<path class="st0" d="M6,21L6,21c-1.7,0-3-1.3-3-3v-2.9c0-1.1,1.4-1.7,2.2-0.9L6,15"/>
<line class="st0" x1="19" y1="18" x2="19" y2="20"/>
<line class="st0" x1="13" y1="17" x2="13" y2="20"/>
<path class="st0" d="M22,18L22,18c-4,0-7.9-0.6-11.7-1.9L10,16"/>
</svg>
