<?xml version="1.0" encoding="utf-8"?>

<svg version="1.1" id="Icons" xmlns="http://www.w3.org/2000/svg" xmlns:xlink="http://www.w3.org/1999/xlink" x="0px" y="0px"
	 viewBox="0 0 32 32" style="enable-background:new 0 0 32 32;" xml:space="preserve">
<style type="text/css">
	.st0{fill:none;stroke:#fff;stroke-width:1;stroke-linecap:round;stroke-linejoin:round;stroke-miterlimit:10;}
</style>
<path class="st0" d="M6,6v12.6C6,20.8,6.6,23,7.7,25l0,0c1.4,2.5,4,4,6.9,4h2.8c2.9,0,5.5-1.5,6.9-4l0,0c1.1-2,1.7-4.2,1.7-6.4V6
	c0-1.6-1.3-3-3-3H9C7.3,3,6,4.3,6,6z"/>
<path class="st0" d="M6,22L6,22c-1.7,0-3-1.3-3-3v-1c0-1.7,1.3-3,3-3h0"/>
<path class="st0" d="M26,15L26,15c1.7,0,3,1.3,3,3v1c0,1.7-1.3,3-3,3h0"/>
<line class="st0" x1="6" y1="11" x2="26" y2="11"/>
<line class="st0" x1="11" y1="9" x2="11" y2="13"/>
<line class="st0" x1="13" y1="18" x2="13" y2="20"/>
<line class="st0" x1="19" y1="17" x2="19" y2="20"/>
<line class="st0" x1="16" y1="9" x2="16" y2="13"/>
<line class="st0" x1="21" y1="9" x2="21" y2="13"/>
<path class="st0" d="M10,18L10,18c4,0,7.9-0.6,11.7-1.9L22,16"/>
<path class="st0" d="M15.5,24.5c1.3,0,2.5,0.2,3.5,0.5c0,0,0-0.1,0-0.1c0-1.6-1.6-2.9-3.5-2.9S12,23.3,12,24.9c0,0,0,0.1,0,0.1
	C13,24.7,14.2,24.5,15.5,24.5z"/>
</svg>
