<?xml version="1.0" encoding="utf-8"?>

<svg version="1.1" id="Icons" xmlns="http://www.w3.org/2000/svg" xmlns:xlink="http://www.w3.org/1999/xlink" x="0px" y="0px"
	 viewBox="0 0 32 32" style="enable-background:new 0 0 32 32;" xml:space="preserve">
<style type="text/css">
	.st0{fill:none;stroke:#fff;stroke-width:1;stroke-linecap:round;stroke-linejoin:round;stroke-miterlimit:10;}
</style>
<path class="st0" d="M22,13L22,13c0-5-4-9-9-9h0c-5,0-9,4-9,9v6.1C4,24,8,28,12.9,28H22h7l-3.6-4.8C23.2,20.3,22,16.7,22,13z"/>
<line class="st0" x1="9" y1="9" x2="9" y2="11"/>
<line class="st0" x1="13" y1="9" x2="13" y2="11"/>
<path class="st0" d="M11,14c-1.7,0-3,1.3-3,3v3h6v-3C14,15.3,12.7,14,11,14z"/>
</svg>
