<?xml version="1.0" encoding="utf-8"?>

<svg version="1.1" id="Icons" xmlns="http://www.w3.org/2000/svg" xmlns:xlink="http://www.w3.org/1999/xlink" x="0px" y="0px"
	 viewBox="0 0 32 32" style="enable-background:new 0 0 32 32;" xml:space="preserve">
<style type="text/css">
	.st0{fill:none;stroke:#fff;stroke-width:1;stroke-linecap:round;stroke-linejoin:round;stroke-miterlimit:10;}
</style>
<path class="st0" d="M26,21L26,21c1.7,0,3-1.3,3-3v-1.8c0-1.6-1.9-2.3-3-1.2l0,0"/>
<path class="st0" d="M6,21L6,21c-1.7,0-3-1.3-3-3v-1.8c0-1.6,1.9-2.3,3-1.2l0,0"/>
<path class="st0" d="M9.1,17C9,17.2,9,17.3,9,17.5c0,1.4,1.1,2.5,2.5,2.5s2.5-1.1,2.5-2.5c0-0.2,0-0.3-0.1-0.5H9.1z"/>
<path class="st0" d="M18.1,17c0,0.2-0.1,0.3-0.1,0.5c0,1.4,1.1,2.5,2.5,2.5s2.5-1.1,2.5-2.5c0-0.2,0-0.3-0.1-0.5H18.1z"/>
<path class="st0" d="M15,23h0.7c1.3,0,2.3-1,2.3-2.3V17"/>
<path class="st0" d="M16,8L16,8c-1.1,0-2-0.9-2-2V3h4v3C18,7.1,17.1,8,16,8z"/>
<path class="st0" d="M17.9,4C22.5,4.5,26,8.3,26,13v0"/>
<path class="st0" d="M26,13v5.6c0,2.3-0.6,4.5-1.7,6.4L22,29H10l-2.3-4C6.6,23,6,20.8,6,18.5V13v0c0-4.6,3.5-8.4,8-8.9"/>
<line class="st0" x1="13" y1="25" x2="13" y2="26"/>
<line class="st0" x1="19" y1="25" x2="19" y2="26"/>
</svg>
