<?xml version="1.0" encoding="utf-8"?>

<svg version="1.1" id="Icons" xmlns="http://www.w3.org/2000/svg" xmlns:xlink="http://www.w3.org/1999/xlink" x="0px" y="0px"
	 viewBox="0 0 32 32" style="enable-background:new 0 0 32 32;" xml:space="preserve">
<style type="text/css">
	.st0{fill:none;stroke:#fff;stroke-width:1;stroke-linecap:round;stroke-linejoin:round;stroke-miterlimit:10;}
</style>
<path class="st0" d="M26,21L26,21c1.7,0,3-1.3,3-3v-1.8c0-1.6-1.9-2.3-3-1.2l0,0"/>
<path class="st0" d="M6,21L6,21c-1.7,0-3-1.3-3-3v-1.8c0-1.6,1.9-2.3,3-1.2l0,0"/>
<path class="st0" d="M14.6,18c-2.1,0.2-3.6,2.1-3.6,4.2l0,2.8l0,0c2.5-1.3,5.5-1.3,8,0l0,0v-3C19,19.7,17,17.8,14.6,18z"/>
<circle class="st0" cx="21" cy="16" r="2"/>
<circle class="st0" cx="10.5" cy="14.5" r="1.5"/>
<path class="st0" d="M25.6,9.5C24.8,9.8,23.9,10,23,10c-3.9,0-7-3.1-7-7h-1c-5,0-9,4-9,9v6.6C6,20.8,6.6,23,7.7,25v0
	c1.4,2.5,4,4,6.9,4h2.8c2.9,0,5.5-1.5,6.9-4v0c1.1-2,1.7-4.2,1.7-6.4V12v0C26,11.1,25.9,10.3,25.6,9.5z"/>
<path class="st0" d="M16.1,4.3C16.7,4.1,17.3,4,18,4c3.3,0,6,2.7,6,6"/>
</svg>
